<svg width="16" height="16" xmlns="http://www.w3.org/2000/svg">

 <g>
  <title>background</title>
  <rect fill="none" id="canvas_background" height="18" width="18" y="-1" x="-1"/>
 </g>
 <g>
  <title>Layer 1</title>
  <path stroke="null" fill="#333333" id="svg_1" d="m14.255264,12.705277l-4.384499,-4.618236l4.384499,-4.618236c0.473365,-0.4986 0.473365,-1.30131 0,-1.79991c-0.473365,-0.4986 -1.235448,-0.4986 -1.708813,0l-4.384499,4.618236l-4.384499,-4.618236c-0.473365,-0.4986 -1.235448,-0.4986 -1.708813,0c-0.473365,0.4986 -0.473365,1.30131 0,1.79991l4.384499,4.618236l-4.384499,4.618236c-0.473365,0.4986 -0.473365,1.30131 0,1.79991c0.473365,0.4986 1.235448,0.4986 1.708813,0l4.384499,-4.618236l4.384499,4.618236c0.473365,0.4986 1.235448,0.4986 1.708813,0c0.470008,-0.4986 0.470008,-1.304846 0,-1.79991z"/>
 </g>
</svg>