<svg width="9" height="15" viewBox="0 0 9 15" fill="none" xmlns="http://www.w3.org/2000/svg">
<path d="M6.375 2.48364H8.24999C8.42258 2.48364 8.5625 2.35086 8.5625 2.18708V0.407797C8.5625 0.244046 8.42258 0.111267 8.24999 0.111267H6.375C4.47738 0.113241 2.93956 1.57253 2.93751 3.37329V5.44913H0.750009C0.577422 5.44913 0.4375 5.58191 0.4375 5.74569V7.52498C0.4375 7.68875 0.577422 7.82153 0.750009 7.82153H2.93751V14.049C2.93751 14.2128 3.07744 14.3456 3.25002 14.3456H5.12502C5.29761 14.3456 5.43753 14.2128 5.43753 14.049V7.82153H7.62503C7.75947 7.82145 7.8788 7.73974 7.92128 7.61869L8.54627 5.83941C8.60082 5.68402 8.51229 5.5161 8.34855 5.46434C8.31679 5.4543 8.28351 5.44916 8.25002 5.44913H5.43753V3.37329C5.4375 2.88195 5.85723 2.48364 6.375 2.48364Z" fill="#333333"/>
</svg>
